<?xml version="1.0" standalone="yes"?>

<svg version="1.1" viewBox="0.0 0.0 128.0 128.0" fill="none" stroke="none" stroke-linecap="square" stroke-miterlimit="10" xmlns="http://www.w3.org/2000/svg" xmlns:xlink="http://www.w3.org/1999/xlink"><clipPath id="p.0"><path d="m0 0l128.0 0l0 128.0l-128.0 0l0 -128.0z" clip-rule="nonzero"></path></clipPath><g clip-path="url(#p.0)"><path fill="#000000" fill-opacity="0.0" d="m0 0l128.0 0l0 128.0l-128.0 0z" fill-rule="evenodd"></path><path fill="#cfe2f3" d="m21.385826 16.861021l0 0c0 -3.5312147 2.8626156 -6.3938293 6.3938293 -6.3938293l73.76353 0c1.6957474 0 3.3220444 0.6736336 4.521118 1.8727093c1.1990738 1.1990747 1.8727036 2.8253708 1.8727036 4.52112l0 25.574545c0 3.5312157 -2.8626099 6.3938293 -6.3938217 6.3938293l-73.76353 0c-3.5312138 0 -6.3938293 -2.8626137 -6.3938293 -6.3938293z" fill-rule="evenodd"></path><path stroke="#000000" stroke-width="1.0" stroke-linejoin="round" stroke-linecap="butt" d="m21.385826 16.861021l0 0c0 -3.5312147 2.8626156 -6.3938293 6.3938293 -6.3938293l73.76353 0c1.6957474 0 3.3220444 0.6736336 4.521118 1.8727093c1.1990738 1.1990747 1.8727036 2.8253708 1.8727036 4.52112l0 25.574545c0 3.5312157 -2.8626099 6.3938293 -6.3938217 6.3938293l-73.76353 0c-3.5312138 0 -6.3938293 -2.8626137 -6.3938293 -6.3938293z" fill-rule="evenodd"></path><path fill="#000000" fill-opacity="0.0" d="m20.72441 14.5958l87.21259 0l0 31.653543l-87.21259 0z" fill-rule="evenodd"></path><path fill="#000000" d="m44.7872 32.46757l-1.734375 4.875l-4.046875 0l-3.515625 -9.015627q-0.109375 -0.28125 -0.203125 -0.46875q-0.078125 -0.1875 -0.25 -0.3125q-0.15625 -0.125 -0.40625 -0.171875q-0.234375 -0.0625 -0.625 -0.0625l0 -3.390625l7.609375 0l0 3.390625q-0.484375 0 -0.6875 0.234375q-0.203125 0.21875 -0.0625 0.671875l1.328125 4.421877l0.078125 0l1.1875 -3.765627l-0.1875 -0.546875q-0.203125 -0.546875 -0.375 -0.78125q-0.171875 -0.234375 -0.609375 -0.234375l0 -3.390625l7.21875 0l0 3.390625q-0.6875 0 -0.84375 0.234375q-0.15625 0.21875 -0.015625 0.671875l1.140625 4.421877l0.078125 0l1.359375 -4.421877q0.28125 -0.90625 -1.046875 -0.90625l0 -3.390625l5.296875 0l0 3.390625q-0.390625 0 -0.640625 0.0625q-0.25 0.046875 -0.40625 0.171875q-0.140625 0.109375 -0.234375 0.3125q-0.09375 0.1875 -0.203125 0.46875l-3.34375 9.015627l-4.046875 0l-1.8125 -4.875zm18.516449 0.1875l-2.890625 0l-0.125 0.390625q-0.140625 0.390625 0.015625 0.65625q0.171875 0.265625 0.703125 0.265625l0.515625 0l0 3.375l-5.671875 0l0 -3.375l0.375 0q0.65625 0 0.875 -0.265625q0.21875 -0.265625 0.4375 -0.765625l1.859375 -4.609377q0.203125 -0.515625 0.0625 -0.765625q-0.125 -0.25 -0.796875 -0.25l-0.1875 0l0 -3.390625l9.359375 0l0 3.390625l-0.171875 0q-0.671875 0 -0.8125 0.265625q-0.125 0.25 0.078125 0.75l1.875 4.609377q0.109375 0.265625 0.1875 0.453125q0.09375 0.1875 0.21875 0.328125q0.125 0.125 0.328125 0.1875q0.21875 0.0625 0.5625 0.0625l0.375 0l0 3.375l-8.28125 0l0 -3.375l0.5 0q0.515625 0 0.6875 -0.265625q0.1875 -0.265625 0.046875 -0.65625l-0.125 -0.390625zm-2.421875 -1.4218769l1.9375 0l-0.90625 -2.796875l-0.078125 0l-0.953125 2.796875zm10.159592 6.109377l0 -3.375q0.796875 0 1.140625 -0.21875q0.359375 -0.21875 0.359375 -0.8125l0 -4.609377q0 -0.59375 -0.359375 -0.796875q-0.34375 -0.21875 -1.140625 -0.21875l0 -3.390625l8.359375 0l0 3.390625q-0.8125 0 -1.15625 0.21875q-0.34375 0.203125 -0.34375 0.796875l0 4.609377q0 0.59375 0.34375 0.8125q0.34375 0.21875 1.15625 0.21875l0 3.375l-8.359375 0zm23.616013 -13.421877l0 5.34375l-3.0 0q0 -0.609375 -0.03125 -1.0625q-0.03125 -0.453125 -0.140625 -0.71875q-0.109375 -0.28125 -0.34375 -0.40625q-0.21875 -0.140625 -0.59375 -0.140625l-0.5625 0l0 6.000002q0 0.59375 0.34375 0.8125q0.34375 0.21875 1.15625 0.21875l0 3.375l-8.359375 0l0 -3.375q0.796875 0 1.140625 -0.21875q0.34375 -0.21875 0.34375 -0.8125l0 -6.000002l-0.546875 0q-0.375 0 -0.609375 0.140625q-0.21875 0.125 -0.328125 0.40625q-0.109375 0.265625 -0.140625 0.71875q-0.03125 0.453125 -0.03125 1.0625l-3.0 0l0 -5.34375l14.703125 0z" fill-rule="nonzero"></path><path fill="#000000" fill-opacity="0.0" d="m64.661415 48.829395l-0.6614151 32.22047" fill-rule="evenodd"></path><path stroke="#000000" stroke-width="1.0" stroke-linejoin="round" stroke-linecap="butt" d="m64.661415 48.829395l-0.5382767 26.221737" fill-rule="evenodd"></path><path fill="#000000" stroke="#000000" stroke-width="1.0" stroke-linecap="butt" d="m62.471756 75.017235l1.5582504 4.5710373l1.7445221 -4.5032425z" fill-rule="evenodd"></path><path fill="#cfe2f3" d="m20.72441 87.4332l0 0c0 -3.5312119 2.8626156 -6.3938293 6.3938293 -6.3938293l73.76352 0c1.6957474 0 3.3220444 0.6736374 4.521118 1.8727112c1.1990814 1.1990738 1.8727112 2.8253708 1.8727112 4.521118l0 25.574547c0 3.5312195 -2.8626099 6.3938293 -6.3938293 6.3938293l-73.76352 0c-3.5312138 0 -6.3938293 -2.8626099 -6.3938293 -6.3938293z" fill-rule="evenodd"></path><path stroke="#000000" stroke-width="1.0" stroke-linejoin="round" stroke-linecap="butt" d="m20.72441 87.4332l0 0c0 -3.5312119 2.8626156 -6.3938293 6.3938293 -6.3938293l73.76352 0c1.6957474 0 3.3220444 0.6736374 4.521118 1.8727112c1.1990814 1.1990738 1.8727112 2.8253708 1.8727112 4.521118l0 25.574547c0 3.5312195 -2.8626099 6.3938293 -6.3938293 6.3938293l-73.76352 0c-3.5312138 0 -6.3938293 -2.8626099 -6.3938293 -6.3938293z" fill-rule="evenodd"></path><path fill="#000000" fill-opacity="0.0" d="m28.377953 85.16798l71.244095 0l0 31.65355l-71.244095 0z" fill-rule="evenodd"></path><path fill="#000000" d="m56.69211 97.836624q0 2.921875 -3.03125 3.1875l0 0.109375q1.578125 0.03125 2.484375 0.859375q0.921875 0.828125 0.921875 2.390625q0 0.65625 -0.15625 1.296875q-0.15625 0.625 -0.671875 1.125q-0.515625 0.484375 -1.484375 0.796875q-0.96875 0.3125 -2.609375 0.3125l-10.015625 0l0 -3.375q0.796875 0 1.140625 -0.21875q0.359375 -0.21875 0.359375 -0.8125l0 -4.609375q0 -0.59375 -0.359375 -0.796875q-0.34375 -0.21875 -1.140625 -0.21875l0 -3.390625l10.640625 0q1.265625 0 2.03125 0.28125q0.78125 0.28125 1.203125 0.75q0.421875 0.46875 0.546875 1.078125q0.140625 0.59375 0.140625 1.234375zm-6.34375 6.703125q0.765625 0 1.0625 -0.296875q0.296875 -0.296875 0.296875 -1.0q0 -0.6875 -0.296875 -1.0q-0.296875 -0.3125 -1.0625 -0.3125l-1.359375 0l0 2.609375l1.359375 0zm-1.359375 -4.21875l1.390625 0q0.5625 0 0.8125 -0.359375q0.25 -0.359375 0.25 -0.875q0 -0.484375 -0.25 -0.84375q-0.25 -0.359375 -0.8125 -0.359375l-1.390625 0l0 2.4375zm17.327179 4.21875q0.375 0 0.625 -0.0625q0.25 -0.0625 0.40625 -0.234375q0.15625 -0.1875 0.203125 -0.5q0.0625 -0.3125 0.0625 -0.796875l3.1875 0l0 4.96875l-12.984375 0l0 -3.375q0.796875 0 1.140625 -0.21875q0.359375 -0.21875 0.359375 -0.8125l0 -4.609375q0 -0.59375 -0.359375 -0.796875q-0.34375 -0.21875 -1.140625 -0.21875l0 -3.390625l12.984375 0l0 4.96875l-3.1875 0q0 -0.484375 -0.0625 -0.796875q-0.046875 -0.3125 -0.203125 -0.484375q-0.15625 -0.171875 -0.40625 -0.234375q-0.25 -0.0625 -0.625 -0.0625l-1.640625 0l0 2.421875l2.90625 0l0 1.609375l-2.90625 0l0 2.625l1.640625 0zm19.743637 -10.046875l0 5.34375l-3.0 0q0 -0.609375 -0.03125 -1.0625q-0.03125 -0.453125 -0.140625 -0.71875q-0.109375 -0.28125 -0.34375 -0.40625q-0.21875 -0.140625 -0.59375 -0.140625l-0.5625 0l0 6.0q0 0.59375 0.34375 0.8125q0.34375 0.21875 1.15625 0.21875l0 3.375l-8.359375 0l0 -3.375q0.796875 0 1.140625 -0.21875q0.34375 -0.21875 0.34375 -0.8125l0 -6.0l-0.546875 0q-0.375 0 -0.609375 0.140625q-0.21875 0.125 -0.328125 0.40625q-0.109375 0.265625 -0.140625 0.71875q-0.03125 0.453125 -0.03125 1.0625l-3.0 0l0 -5.34375l14.703125 0z" fill-rule="nonzero"></path></g></svg>

