<svg viewBox="0 0 256 256" width="256px" height="256px" xmlns="http://www.w3.org/2000/svg" xmlns:bx="https://boxy-svg.com" id="r1s0Q7UqM">
    <style type="text/css">
        @-webkit-keyframes BJXs0QX85f_HyzjrmUcf_Animation{0%{-webkit-transform: rotate(0deg);transform: rotate(0deg);}100%{-webkit-transform: rotate(-360deg);transform: rotate(-360deg);}}@keyframes BJXs0QX85f_HyzjrmUcf_Animation{0%{-webkit-transform: rotate(0deg);transform: rotate(0deg);}100%{-webkit-transform: rotate(-360deg);transform: rotate(-360deg);}}@-webkit-keyframes SyGiC7mL9f_HkN9SX8qz_Animation{0%{-webkit-transform: rotate(0deg);transform: rotate(0deg);}100%{-webkit-transform: rotate(-360deg);transform: rotate(-360deg);}}@keyframes SyGiC7mL9f_HkN9SX8qz_Animation{0%{-webkit-transform: rotate(0deg);transform: rotate(0deg);}100%{-webkit-transform: rotate(-360deg);transform: rotate(-360deg);}}@-webkit-keyframes S1ZiCXQL9z_S1AIrQ85f_Animation{0%{-webkit-transform: rotate(0deg);transform: rotate(0deg);}100%{-webkit-transform: rotate(360deg);transform: rotate(360deg);}}@keyframes S1ZiCXQL9z_S1AIrQ85f_Animation{0%{-webkit-transform: rotate(0deg);transform: rotate(0deg);}100%{-webkit-transform: rotate(360deg);transform: rotate(360deg);}}@-webkit-keyframes S1gjCmQL9f_SysgSmLqG_Animation{0%{-webkit-transform: rotate(0deg);transform: rotate(0deg);}100%{-webkit-transform: rotate(360deg);transform: rotate(360deg);}}@keyframes S1gjCmQL9f_SysgSmLqG_Animation{0%{-webkit-transform: rotate(0deg);transform: rotate(0deg);}100%{-webkit-transform: rotate(360deg);transform: rotate(360deg);}}@-webkit-keyframes BJXs0QX85f_SyTsVXUqG_Animation{0%{-webkit-transform: translate(130px, 90px);transform: translate(130px, 90px);}100%{-webkit-transform: translate(130px, 90px);transform: translate(130px, 90px);}}@keyframes BJXs0QX85f_SyTsVXUqG_Animation{0%{-webkit-transform: translate(130px, 90px);transform: translate(130px, 90px);}100%{-webkit-transform: translate(130px, 90px);transform: translate(130px, 90px);}}@-webkit-keyframes SyGiC7mL9f_SkQjNQIqf_Animation{0%{-webkit-transform: translate(130px, 100px);transform: translate(130px, 100px);}100%{-webkit-transform: translate(130px, 100px);transform: translate(130px, 100px);}}@keyframes SyGiC7mL9f_SkQjNQIqf_Animation{0%{-webkit-transform: translate(130px, 100px);transform: translate(130px, 100px);}100%{-webkit-transform: translate(130px, 100px);transform: translate(130px, 100px);}}@-webkit-keyframes BJXs0QX85f_rJSYV7LcM_Animation{0%{-webkit-transform: scale(0.2, 0.2);transform: scale(0.2, 0.2);}100%{-webkit-transform: scale(0.2, 0.2);transform: scale(0.2, 0.2);}}@keyframes BJXs0QX85f_rJSYV7LcM_Animation{0%{-webkit-transform: scale(0.2, 0.2);transform: scale(0.2, 0.2);}100%{-webkit-transform: scale(0.2, 0.2);transform: scale(0.2, 0.2);}}@-webkit-keyframes SyGiC7mL9f_ry7KEmIcf_Animation{0%{-webkit-transform: scale(0.2, 0.2);transform: scale(0.2, 0.2);}100%{-webkit-transform: scale(0.2, 0.2);transform: scale(0.2, 0.2);}}@keyframes SyGiC7mL9f_ry7KEmIcf_Animation{0%{-webkit-transform: scale(0.2, 0.2);transform: scale(0.2, 0.2);}100%{-webkit-transform: scale(0.2, 0.2);transform: scale(0.2, 0.2);}}@-webkit-keyframes S1ZiCXQL9z_HJTLV7LcG_Animation{0%{-webkit-transform: translate(0px, -10px);transform: translate(0px, -10px);}100%{-webkit-transform: translate(0px, -10px);transform: translate(0px, -10px);}}@keyframes S1ZiCXQL9z_HJTLV7LcG_Animation{0%{-webkit-transform: translate(0px, -10px);transform: translate(0px, -10px);}100%{-webkit-transform: translate(0px, -10px);transform: translate(0px, -10px);}}@-webkit-keyframes S1ZiCXQL9z_BJyHN7U5z_Animation{0%{-webkit-transform: scale(0.3, 0.3);transform: scale(0.3, 0.3);}100%{-webkit-transform: scale(0.3, 0.3);transform: scale(0.3, 0.3);}}@keyframes S1ZiCXQL9z_BJyHN7U5z_Animation{0%{-webkit-transform: scale(0.3, 0.3);transform: scale(0.3, 0.3);}100%{-webkit-transform: scale(0.3, 0.3);transform: scale(0.3, 0.3);}}@-webkit-keyframes S1gjCmQL9f_H1fZV7Uqf_Animation{0%{-webkit-transform: scale(0.3, 0.3);transform: scale(0.3, 0.3);}100%{-webkit-transform: scale(0.3, 0.3);transform: scale(0.3, 0.3);}}@keyframes S1gjCmQL9f_H1fZV7Uqf_Animation{0%{-webkit-transform: scale(0.3, 0.3);transform: scale(0.3, 0.3);}100%{-webkit-transform: scale(0.3, 0.3);transform: scale(0.3, 0.3);}}#r1s0Q7UqM *{-webkit-animation-duration: 1s;animation-duration: 1s;-webkit-animation-iteration-count: infinite;animation-iteration-count: infinite;-webkit-animation-timing-function: cubic-bezier(0, 0, 1, 1);animation-timing-function: cubic-bezier(0, 0, 1, 1);transform-box: fill-box;-webkit-transform-origin: 50% 50%;transform-origin: 50% 50%;}#S1gjCmQL9f{fill: rgb(221, 202, 194);-webkit-transform:  matrix(-0.243519,,0.007015,,-0.006778,,-0.209808,,157.705994,,208.997772);transform:  matrix(-0.243519,,0.007015,,-0.006778,,-0.209808,,157.705994,,208.997772);}#S1ZiCXQL9z{fill: rgb(255, 68, 0);-webkit-transform:  matrix(-0.243519,,0.007015,,-0.006778,,-0.209808,,157.831055,,200.833389);transform:  matrix(-0.243519,,0.007015,,-0.006778,,-0.209808,,157.831055,,200.833389);}#SyGiC7mL9f{fill: rgb(194, 208, 221);-webkit-transform:  matrix(-0.149505,,0.004306,,-0.004162,,-0.12881,,224.980255,,220.16037);transform:  matrix(-0.149505,,0.004306,,-0.004162,,-0.12881,,224.980255,,220.16037);}#BJXs0QX85f{fill: rgb(0, 136, 255);-webkit-transform:  matrix(-0.149505,,0.004306,,-0.004162,,-0.12881,,225.057037,,215.147919);transform:  matrix(-0.149505,,0.004306,,-0.004162,,-0.12881,,225.057037,,215.147919);}#S1gjCmQL9f_H1fZV7Uqf{-webkit-animation-name: S1gjCmQL9f_H1fZV7Uqf_Animation;animation-name: S1gjCmQL9f_H1fZV7Uqf_Animation;-webkit-transform-origin: undefined;transform-origin: undefined;}#S1ZiCXQL9z_SyRGVQUcG{-webkit-transform-origin: undefined;transform-origin: undefined;}#S1ZiCXQL9z_BJyHN7U5z{-webkit-animation-name: S1ZiCXQL9z_BJyHN7U5z_Animation;animation-name: S1ZiCXQL9z_BJyHN7U5z_Animation;-webkit-transform-origin: undefined;transform-origin: undefined;}#S1ZiCXQL9z_HJTLV7LcG{-webkit-animation-name: S1ZiCXQL9z_HJTLV7LcG_Animation;animation-name: S1ZiCXQL9z_HJTLV7LcG_Animation;-webkit-transform-origin: undefined;transform-origin: undefined;}#SyGiC7mL9f_ry7KEmIcf{-webkit-animation-name: SyGiC7mL9f_ry7KEmIcf_Animation;animation-name: SyGiC7mL9f_ry7KEmIcf_Animation;-webkit-transform-origin: undefined;transform-origin: undefined;}#BJXs0QX85f_rJSYV7LcM{-webkit-animation-name: BJXs0QX85f_rJSYV7LcM_Animation;animation-name: BJXs0QX85f_rJSYV7LcM_Animation;-webkit-transform-origin: undefined;transform-origin: undefined;}#SyGiC7mL9f_SkQjNQIqf{-webkit-animation-name: SyGiC7mL9f_SkQjNQIqf_Animation;animation-name: SyGiC7mL9f_SkQjNQIqf_Animation;-webkit-transform-origin: undefined;transform-origin: undefined;}#BJXs0QX85f_SyTsVXUqG{-webkit-animation-name: BJXs0QX85f_SyTsVXUqG_Animation;animation-name: BJXs0QX85f_SyTsVXUqG_Animation;-webkit-transform-origin: undefined;transform-origin: undefined;}#S1gjCmQL9f_SysgSmLqG{-webkit-animation-name: S1gjCmQL9f_SysgSmLqG_Animation;animation-name: S1gjCmQL9f_SysgSmLqG_Animation;-webkit-transform-origin: undefined;transform-origin: undefined;}#S1ZiCXQL9z_S1AIrQ85f{-webkit-animation-name: S1ZiCXQL9z_S1AIrQ85f_Animation;animation-name: S1ZiCXQL9z_S1AIrQ85f_Animation;-webkit-transform-origin: undefined;transform-origin: undefined;}#SyGiC7mL9f_HkN9SX8qz{-webkit-transform-origin: undefined;transform-origin: undefined;-webkit-animation-name: SyGiC7mL9f_HkN9SX8qz_Animation;animation-name: SyGiC7mL9f_HkN9SX8qz_Animation;}#BJXs0QX85f_HyzjrmUcf{-webkit-animation-name: BJXs0QX85f_HyzjrmUcf_Animation;animation-name: BJXs0QX85f_HyzjrmUcf_Animation;-webkit-transform-origin: undefined;transform-origin: undefined;}
    </style>
    <g id="S1gjCmQL9f_SysgSmLqG" data-animator-group="true" data-animator-type="1">
        <g id="S1gjCmQL9f_H1fZV7Uqf" data-animator-group="true" data-animator-type="2">
            <path d="M 221.598 128.863 L 294.402 128.863 L 310.478 234.369 A 196.758 196.758 0 0 1 354.982 252.803 L 440.954 189.567 L 492.433 241.046 L 429.197 327.018 A 196.758 196.758 0 0 1 447.631 371.522 L 553.137 387.598 L 553.137 460.402 L 447.631 476.478 A 196.758 196.758 0 0 1 429.197 520.982 L 492.433 606.954 L 440.954 658.433 L 354.982 595.197 A 196.758 196.758 0 0 1 310.478 613.631 L 294.402 719.137 L 221.598 719.137 L 205.522 613.631 A 196.758 196.758 0 0 1 161.018 595.197 L 75.046 658.433 L 23.567 606.954 L 86.803 520.982 A 196.758 196.758 0 0 1 68.369 476.478 L -37.137 460.402 L -37.137 387.598 L 68.369 371.522 A 196.758 196.758 0 0 1 86.803 327.018 L 23.567 241.046 L 75.046 189.567 L 161.018 252.803 A 196.758 196.758 0 0 1 205.522 234.369 Z M 258 325.621 A 98.379 98.379 0 0 0 258 522.379 A 98.379 98.379 0 0 0 258 325.621" bx:shape="cog 258 424 98.379 196.758 295.137 0.375 8 1@45083dfc" id="S1gjCmQL9f">
                <title>
                    SHADOW_RED
                </title>
            </path>
        </g>
    </g>
    <g id="S1ZiCXQL9z_HJTLV7LcG" data-animator-group="true" data-animator-type="0">
        <g id="S1ZiCXQL9z_S1AIrQ85f" data-animator-group="true" data-animator-type="1">
            <g id="S1ZiCXQL9z_BJyHN7U5z" data-animator-group="true" data-animator-type="2">
                <path d="M 221.598 128.863 L 294.402 128.863 L 310.478 234.369 A 196.758 196.758 0 0 1 354.982 252.803 L 440.954 189.567 L 492.433 241.046 L 429.197 327.018 A 196.758 196.758 0 0 1 447.631 371.522 L 553.137 387.598 L 553.137 460.402 L 447.631 476.478 A 196.758 196.758 0 0 1 429.197 520.982 L 492.433 606.954 L 440.954 658.433 L 354.982 595.197 A 196.758 196.758 0 0 1 310.478 613.631 L 294.402 719.137 L 221.598 719.137 L 205.522 613.631 A 196.758 196.758 0 0 1 161.018 595.197 L 75.046 658.433 L 23.567 606.954 L 86.803 520.982 A 196.758 196.758 0 0 1 68.369 476.478 L -37.137 460.402 L -37.137 387.598 L 68.369 371.522 A 196.758 196.758 0 0 1 86.803 327.018 L 23.567 241.046 L 75.046 189.567 L 161.018 252.803 A 196.758 196.758 0 0 1 205.522 234.369 Z M 258 325.621 A 98.379 98.379 0 0 0 258 522.379 A 98.379 98.379 0 0 0 258 325.621" bx:shape="cog 258 424 98.379 196.758 295.137 0.375 8 1@45083dfc" id="S1ZiCXQL9z">
                    <title>
                        RED
                    </title>
                </path>
            </g>
        </g>
    </g>
    <g id="SyGiC7mL9f_SkQjNQIqf" data-animator-group="true" data-animator-type="0">
        <g id="SyGiC7mL9f_HkN9SX8qz" data-animator-group="true" data-animator-type="1">
            <g id="SyGiC7mL9f_ry7KEmIcf" data-animator-group="true" data-animator-type="2">
                <path d="M 221.598 128.863 L 294.402 128.863 L 310.478 234.369 A 196.758 196.758 0 0 1 354.982 252.803 L 440.954 189.567 L 492.433 241.046 L 429.197 327.018 A 196.758 196.758 0 0 1 447.631 371.522 L 553.137 387.598 L 553.137 460.402 L 447.631 476.478 A 196.758 196.758 0 0 1 429.197 520.982 L 492.433 606.954 L 440.954 658.433 L 354.982 595.197 A 196.758 196.758 0 0 1 310.478 613.631 L 294.402 719.137 L 221.598 719.137 L 205.522 613.631 A 196.758 196.758 0 0 1 161.018 595.197 L 75.046 658.433 L 23.567 606.954 L 86.803 520.982 A 196.758 196.758 0 0 1 68.369 476.478 L -37.137 460.402 L -37.137 387.598 L 68.369 371.522 A 196.758 196.758 0 0 1 86.803 327.018 L 23.567 241.046 L 75.046 189.567 L 161.018 252.803 A 196.758 196.758 0 0 1 205.522 234.369 Z M 258 325.621 A 98.379 98.379 0 0 0 258 522.379 A 98.379 98.379 0 0 0 258 325.621" bx:shape="cog 258 424 98.379 196.758 295.137 0.375 8 1@45083dfc" id="SyGiC7mL9f">
                    <title>
                        BLUE
                    </title>
                </path>
            </g>
        </g>
    </g>
    <g id="BJXs0QX85f_SyTsVXUqG" data-animator-group="true" data-animator-type="0">
        <g id="BJXs0QX85f_HyzjrmUcf" data-animator-group="true" data-animator-type="1">
            <g id="BJXs0QX85f_rJSYV7LcM" data-animator-group="true" data-animator-type="2">
                <path d="M 221.598 128.863 L 294.402 128.863 L 310.478 234.369 A 196.758 196.758 0 0 1 354.982 252.803 L 440.954 189.567 L 492.433 241.046 L 429.197 327.018 A 196.758 196.758 0 0 1 447.631 371.522 L 553.137 387.598 L 553.137 460.402 L 447.631 476.478 A 196.758 196.758 0 0 1 429.197 520.982 L 492.433 606.954 L 440.954 658.433 L 354.982 595.197 A 196.758 196.758 0 0 1 310.478 613.631 L 294.402 719.137 L 221.598 719.137 L 205.522 613.631 A 196.758 196.758 0 0 1 161.018 595.197 L 75.046 658.433 L 23.567 606.954 L 86.803 520.982 A 196.758 196.758 0 0 1 68.369 476.478 L -37.137 460.402 L -37.137 387.598 L 68.369 371.522 A 196.758 196.758 0 0 1 86.803 327.018 L 23.567 241.046 L 75.046 189.567 L 161.018 252.803 A 196.758 196.758 0 0 1 205.522 234.369 Z M 258 325.621 A 98.379 98.379 0 0 0 258 522.379 A 98.379 98.379 0 0 0 258 325.621" bx:shape="cog 258 424 98.379 196.758 295.137 0.375 8 1@45083dfc" id="BJXs0QX85f">
                    <title>
                        SHADOW_BLUE
                    </title>
                </path>
            </g>
        </g>
    </g>
</svg>