<?xml version="1.0" standalone="yes"?>

<svg version="1.1" viewBox="0.0 0.0 128.0 128.0" fill="none" stroke="none" stroke-linecap="square" stroke-miterlimit="10" xmlns="http://www.w3.org/2000/svg" xmlns:xlink="http://www.w3.org/1999/xlink"><clipPath id="p.0"><path d="m0 0l128.0 0l0 128.0l-128.0 0l0 -128.0z" clip-rule="nonzero"></path></clipPath><g clip-path="url(#p.0)"><path fill="#000000" fill-opacity="0.0" d="m0 0l128.0 0l0 128.0l-128.0 0z" fill-rule="evenodd"></path><path fill="#000000" fill-opacity="0.0" d="m0 0l128.0 0l0 128.0l-128.0 0z" fill-rule="evenodd"></path><path fill="#000000" d="m90.78906 46.909996q0 4.3125 -1.6875 7.484375q-1.6875 3.15625 -4.296875 5.484375q-2.59375 2.3125 -5.5 4.03125q-2.90625 1.703125 -5.515625 3.296875q-2.59375 1.59375 -4.28125 3.234375q-1.6875 1.640625 -1.6875 3.75l-13.21875 0q0 -3.75 0.75 -6.578125q0.75 -2.84375 1.921875 -5.0q1.171875 -2.15625 2.546875 -3.9375q1.390625 -1.78125 2.53125 -3.5625q1.15625 -1.78125 1.921875 -3.65625q0.78125 -1.875 0.78125 -4.265625q0 -2.390625 -1.0625 -4.125q-1.046875 -1.734375 -2.734375 -2.59375q-1.6875 -0.875 -3.84375 -0.875q-2.15625 0 -4.265625 1.078125q2.859375 0.84375 4.5 2.765625q1.640625 1.921875 1.640625 5.484375q0 1.640625 -0.734375 3.171875q-0.71875 1.515625 -2.109375 2.78125q-1.375 1.265625 -3.484375 1.96875q-2.109375 0.703125 -4.828125 0.703125q-2.015625 0 -4.125 -0.515625q-2.109375 -0.515625 -3.828125 -1.84375q-1.703125 -1.34375 -2.828125 -3.609375q-1.125 -2.28125 -1.125 -5.609375q0 -4.125 2.078125 -7.359375q2.09375 -3.234375 5.765625 -5.4375q3.6875 -2.203125 8.8125 -3.34375q5.140625 -1.15625 11.28125 -1.15625q13.359375 0 19.984375 4.765625q6.640625 4.75 6.640625 13.46875zm-41.390625 41.859375q0 -2.390625 0.953125 -4.59375q0.96875 -2.203125 2.5625 -3.796875q1.59375 -1.59375 3.75 -2.546875q2.15625 -0.96875 4.640625 -0.96875q2.390625 0 4.59375 0.96875q2.203125 0.953125 3.796875 2.546875q1.59375 1.59375 2.546875 3.796875q0.96875 2.203125 0.96875 4.59375q0 2.484375 -0.96875 4.640625q-0.953125 2.15625 -2.546875 3.75q-1.59375 1.59375 -3.796875 2.546875q-2.203125 0.96875 -4.59375 0.96875q-2.484375 0 -4.640625 -0.96875q-2.15625 -0.953125 -3.75 -2.546875q-1.59375 -1.59375 -2.5625 -3.75q-0.953125 -2.15625 -0.953125 -4.640625z" fill-rule="nonzero"></path></g></svg>

