<?xml version="1.0" standalone="yes"?>

<svg version="1.1" viewBox="0.0 0.0 128.0 128.0" fill="none" stroke="none" stroke-linecap="square" stroke-miterlimit="10" xmlns="http://www.w3.org/2000/svg" xmlns:xlink="http://www.w3.org/1999/xlink"><clipPath id="p.0"><path d="m0 0l128.0 0l0 128.0l-128.0 0l0 -128.0z" clip-rule="nonzero"></path></clipPath><g clip-path="url(#p.0)"><path fill="#000000" fill-opacity="0.0" d="m0 0l128.0 0l0 128.0l-128.0 0z" fill-rule="evenodd"></path><path fill="#000000" d="m49.889763 27.958006l0 0c0 -7.7928696 6.3173676 -14.110237 14.110237 -14.110237l0 0c3.7422638 0 7.3312607 1.4866104 9.9774475 4.1327934c2.6461792 2.646181 4.1327896 6.235176 4.1327896 9.977444l0 0c0 7.7928677 -6.3173676 14.110235 -14.110237 14.110235l0 0c-7.7928696 0 -14.110237 -6.3173676 -14.110237 -14.110235z" fill-rule="evenodd"></path><path stroke="#000000" stroke-width="1.0" stroke-linejoin="round" stroke-linecap="butt" d="m49.889763 27.958006l0 0c0 -7.7928696 6.3173676 -14.110237 14.110237 -14.110237l0 0c3.7422638 0 7.3312607 1.4866104 9.9774475 4.1327934c2.6461792 2.646181 4.1327896 6.235176 4.1327896 9.977444l0 0c0 7.7928677 -6.3173676 14.110235 -14.110237 14.110235l0 0c-7.7928696 0 -14.110237 -6.3173676 -14.110237 -14.110235z" fill-rule="evenodd"></path><path fill="#cfe2f3" d="m20.72441 77.70354l0 0c0 -3.5312119 2.8626156 -6.3938293 6.3938293 -6.3938293l73.76352 0c1.6957474 0 3.3220444 0.6736374 4.521118 1.8727112c1.1990814 1.1990738 1.8727112 2.8253708 1.8727112 4.521118l0 25.574547c0 3.5312195 -2.8626099 6.3938293 -6.3938293 6.3938293l-73.76352 0c-3.5312138 0 -6.3938293 -2.8626099 -6.3938293 -6.3938293z" fill-rule="evenodd"></path><path stroke="#000000" stroke-width="1.0" stroke-linejoin="round" stroke-linecap="butt" d="m20.72441 77.70354l0 0c0 -3.5312119 2.8626156 -6.3938293 6.3938293 -6.3938293l73.76352 0c1.6957474 0 3.3220444 0.6736374 4.521118 1.8727112c1.1990814 1.1990738 1.8727112 2.8253708 1.8727112 4.521118l0 25.574547c0 3.5312195 -2.8626099 6.3938293 -6.3938293 6.3938293l-73.76352 0c-3.5312138 0 -6.3938293 -2.8626099 -6.3938293 -6.3938293z" fill-rule="evenodd"></path><path fill="#000000" fill-opacity="0.0" d="m28.377953 75.438324l71.244095 0l0 31.653542l-71.244095 0z" fill-rule="evenodd"></path><path fill="#000000" d="m44.449867 98.18509l-3.53125 -13.359375l1.8125 0l2.03125 8.765625q0.328125 1.375 0.5625 2.71875q0.5 -2.140625 0.59375 -2.46875l2.546875 -9.015625l2.125 0l1.921875 6.765625q0.71875 2.515625 1.03125 4.71875q0.265625 -1.265625 0.671875 -2.890625l2.09375 -8.59375l1.78125 0l-3.671875 13.359375l-1.703125 0l-2.8125 -10.171875q-0.359375 -1.28125 -0.421875 -1.5625q-0.203125 0.90625 -0.390625 1.5625l-2.828125 10.171875l-1.8125 0zm13.811783 0l5.125 -13.359375l1.90625 0l5.46875 13.359375l-2.015625 0l-1.546875 -4.046875l-5.59375 0l-1.46875 4.046875l-1.875 0zm3.859375 -5.484375l4.53125 0l-1.40625 -3.703125q-0.625 -1.6875 -0.9375 -2.765625q-0.265625 1.28125 -0.71875 2.546875l-1.46875 3.921875zm10.349823 5.484375l0 -13.359375l1.765625 0l0 13.359375l-1.765625 0zm8.292679 0l0 -11.78125l-4.40625 0l0 -1.578125l10.578125 0l0 1.578125l-4.40625 0l0 11.78125l-1.765625 0z" fill-rule="nonzero"></path><path fill="#000000" fill-opacity="0.0" d="m64.0 42.06824l0 29.228344" fill-rule="evenodd"></path><path stroke="#000000" stroke-width="1.0" stroke-linejoin="round" stroke-linecap="butt" d="m64.0 42.06824l0 23.228344" fill-rule="evenodd"></path><path fill="#000000" stroke="#000000" stroke-width="1.0" stroke-linecap="butt" d="m62.348267 65.296585l1.6517334 4.538101l1.6517334 -4.538101z" fill-rule="evenodd"></path></g></svg>

